<svg xmlns="http://www.w3.org/2000/svg" viewBox="0 0 1600 1000" preserveAspectRatio="xMidYMid slice">
<defs>
<linearGradient id="s" x1="0" y1="0" x2="0" y2="1"><stop offset="0" stop-color="#23407a"/><stop offset=".45" stop-color="#8a5b8c"/><stop offset=".62" stop-color="#e9824a"/><stop offset=".74" stop-color="#f6c177"/></linearGradient>
<linearGradient id="g" x1="0" y1="0" x2="0" y2="1"><stop offset="0" stop-color="#d9884a"/><stop offset="1" stop-color="#8c3d1e"/></linearGradient>
<radialGradient id="sun"><stop offset="0" stop-color="#fff1c9"/><stop offset=".3" stop-color="#ffd27f" stop-opacity=".9"/><stop offset="1" stop-color="#ffb35c" stop-opacity="0"/></radialGradient>
</defs>
<rect width="1600" height="1000" fill="url(#s)"/>
<circle cx="830" cy="700" r="330" fill="url(#sun)"/><circle cx="830" cy="700" r="92" fill="#fff4d6"/>
<path d="M0 700 C300 670 520 690 830 680 S1400 668 1600 690 V740 H0Z" fill="#c9774a" opacity=".6"/>
<path d="M60,740 L103.19999999999999,670 L132,520 L348,520 L376.8,670 L420,740Z" fill="#9c4a2a"/><g stroke="#6e2b17" stroke-opacity=".35" stroke-width="3"><path d="M132,538 H348"/><path d="M132,554 H348"/><path d="M132,577 H348"/><path d="M132,600 H348"/><path d="M132,619 H348"/><path d="M132,642 H348"/><path d="M132,659 H348"/></g><path d="M380,740 L411.2,680 L432,560 L523,560 L536,590 L551.6,590 L556.8,490 L572.4,490 L577.6,590 L588,560 L608.8,680 L640,740Z" fill="#a9532e"/><g stroke="#6e2b17" stroke-opacity=".35" stroke-width="3"><path d="M432,578 H588"/><path d="M432,598 H588"/><path d="M432,618 H588"/><path d="M432,641 H588"/><path d="M432,666 H588"/></g><path d="M980,740 L1018.4,660 L1044,500 L1156,500 L1172,530 L1191.2,530 L1197.6,430 L1216.8,430 L1223.2,530 L1236,500 L1261.6,660 L1300,740Z" fill="#963f24"/><g stroke="#6e2b17" stroke-opacity=".35" stroke-width="3"><path d="M1044,518 H1236"/><path d="M1044,536 H1236"/><path d="M1044,553 H1236"/><path d="M1044,572 H1236"/><path d="M1044,594 H1236"/><path d="M1044,614 H1236"/><path d="M1044,630 H1236"/><path d="M1044,656 H1236"/></g><path d="M1280,740 L1323.2,680 L1352,540 L1568,540 L1596.8,680 L1640,740Z" fill="#a24c2b"/><g stroke="#6e2b17" stroke-opacity=".35" stroke-width="3"><path d="M1352,558 H1568"/><path d="M1352,575 H1568"/><path d="M1352,595 H1568"/><path d="M1352,621 H1568"/><path d="M1352,643 H1568"/><path d="M1352,661 H1568"/></g>
<rect y="738" width="1600" height="262" fill="url(#g)"/>
<ellipse cx="736" cy="819" rx="10" ry="6" fill="#6e2b17" opacity=".35"/><ellipse cx="883" cy="938" rx="15" ry="4" fill="#6e2b17" opacity=".35"/><ellipse cx="1089" cy="901" rx="12" ry="7" fill="#6e2b17" opacity=".35"/><ellipse cx="1528" cy="942" rx="13" ry="8" fill="#6e2b17" opacity=".35"/><ellipse cx="981" cy="929" rx="14" ry="5" fill="#6e2b17" opacity=".35"/><ellipse cx="253" cy="853" rx="16" ry="4" fill="#6e2b17" opacity=".35"/><ellipse cx="1332" cy="846" rx="12" ry="5" fill="#6e2b17" opacity=".35"/><ellipse cx="1274" cy="943" rx="18" ry="5" fill="#6e2b17" opacity=".35"/><ellipse cx="874" cy="827" rx="20" ry="6" fill="#6e2b17" opacity=".35"/><ellipse cx="930" cy="891" rx="29" ry="5" fill="#6e2b17" opacity=".35"/><ellipse cx="529" cy="860" rx="24" ry="5" fill="#6e2b17" opacity=".35"/><ellipse cx="806" cy="963" rx="16" ry="6" fill="#6e2b17" opacity=".35"/><ellipse cx="1038" cy="831" rx="24" ry="4" fill="#6e2b17" opacity=".35"/><ellipse cx="1292" cy="947" rx="11" ry="6" fill="#6e2b17" opacity=".35"/><ellipse cx="127" cy="857" rx="16" ry="4" fill="#6e2b17" opacity=".35"/><ellipse cx="1090" cy="898" rx="30" ry="5" fill="#6e2b17" opacity=".35"/><ellipse cx="266" cy="877" rx="25" ry="6" fill="#6e2b17" opacity=".35"/><ellipse cx="1529" cy="811" rx="9" ry="4" fill="#6e2b17" opacity=".35"/><ellipse cx="555" cy="777" rx="23" ry="5" fill="#6e2b17" opacity=".35"/><ellipse cx="698" cy="956" rx="25" ry="7" fill="#6e2b17" opacity=".35"/><ellipse cx="19" cy="796" rx="23" ry="5" fill="#6e2b17" opacity=".35"/><ellipse cx="1243" cy="923" rx="25" ry="5" fill="#6e2b17" opacity=".35"/><ellipse cx="199" cy="806" rx="26" ry="3" fill="#6e2b17" opacity=".35"/><ellipse cx="918" cy="903" rx="18" ry="5" fill="#6e2b17" opacity=".35"/><ellipse cx="24" cy="776" rx="11" ry="6" fill="#6e2b17" opacity=".35"/><ellipse cx="1103" cy="804" rx="28" ry="6" fill="#6e2b17" opacity=".35"/><ellipse cx="696" cy="817" rx="25" ry="5" fill="#6e2b17" opacity=".35"/><ellipse cx="1487" cy="966" rx="19" ry="7" fill="#6e2b17" opacity=".35"/><ellipse cx="1497" cy="810" rx="29" ry="7" fill="#6e2b17" opacity=".35"/><ellipse cx="1249" cy="923" rx="28" ry="3" fill="#6e2b17" opacity=".35"/><ellipse cx="1135" cy="941" rx="14" ry="5" fill="#6e2b17" opacity=".35"/><ellipse cx="512" cy="937" rx="22" ry="8" fill="#6e2b17" opacity=".35"/><ellipse cx="954" cy="792" rx="22" ry="4" fill="#6e2b17" opacity=".35"/><ellipse cx="173" cy="763" rx="13" ry="5" fill="#6e2b17" opacity=".35"/><ellipse cx="1515" cy="764" rx="11" ry="6" fill="#6e2b17" opacity=".35"/><ellipse cx="212" cy="916" rx="24" ry="3" fill="#6e2b17" opacity=".35"/><ellipse cx="1050" cy="854" rx="18" ry="7" fill="#6e2b17" opacity=".35"/><ellipse cx="569" cy="942" rx="14" ry="6" fill="#6e2b17" opacity=".35"/><ellipse cx="1465" cy="821" rx="24" ry="4" fill="#6e2b17" opacity=".35"/><ellipse cx="72" cy="905" rx="14" ry="3" fill="#6e2b17" opacity=".35"/>
<path d="M827,700 L833,700 L1120,1000 L520,1000Z" fill="#3a2a2e"/>
  <path d="M830,700 L820,1000" stroke="#ffcf7a" stroke-width="6" stroke-dasharray="26 22" opacity=".9"/>
<g transform="translate(1180 780)">
  <rect x="-3" y="0" width="6" height="150" fill="#3b1a12"/>
  <path d="M-38 -70 H38 C38 -48 44 -30 34 -8 C22 18 6 22 0 32 C-6 22 -22 18 -34 -8 C-44 -30 -38 -48 -38 -70Z" fill="#fffaf0" stroke="#1d1d1d" stroke-width="4"/>
  <path d="M-30 -62 H30 V-44 H-30Z" fill="#1d1d1d"/>
  <text x="0" y="-48" font-family="Arial,Helvetica,sans-serif" font-size="12" font-weight="700" fill="#fffaf0" text-anchor="middle">US</text>
  <text x="0" y="6" font-family="Arial,Helvetica,sans-serif" font-size="40" font-weight="800" fill="#1d1d1d" text-anchor="middle">66</text></g>
<g transform="translate(250 960) scale(1.4)" fill="#3b1a12">
    <rect x="-9" y="-120" width="18" height="120" rx="9"/>
    <path d="M-9 -60 h-18 a9 9 0 0 1 -9 -9 v-34 a9 9 0 0 1 18 0 v25 h9z"/>
    <path d="M9 -75 h18 a9 9 0 0 0 9 -9 v-26 a9 9 0 0 0 -18 0 v17 h-9z"/></g><g transform="translate(1420 930) scale(1.1)" fill="#3b1a12">
    <rect x="-9" y="-120" width="18" height="120" rx="9"/>
    <path d="M-9 -60 h-18 a9 9 0 0 1 -9 -9 v-34 a9 9 0 0 1 18 0 v25 h9z"/>
    <path d="M9 -75 h18 a9 9 0 0 0 9 -9 v-26 a9 9 0 0 0 -18 0 v17 h-9z"/></g><g transform="translate(1520 990) scale(1.6)" fill="#3b1a12">
    <rect x="-9" y="-120" width="18" height="120" rx="9"/>
    <path d="M-9 -60 h-18 a9 9 0 0 1 -9 -9 v-34 a9 9 0 0 1 18 0 v25 h9z"/>
    <path d="M9 -75 h18 a9 9 0 0 0 9 -9 v-26 a9 9 0 0 0 -18 0 v17 h-9z"/></g><g transform="translate(90 880) scale(0.8)" fill="#3b1a12">
    <rect x="-9" y="-120" width="18" height="120" rx="9"/>
    <path d="M-9 -60 h-18 a9 9 0 0 1 -9 -9 v-34 a9 9 0 0 1 18 0 v25 h9z"/>
    <path d="M9 -75 h18 a9 9 0 0 0 9 -9 v-26 a9 9 0 0 0 -18 0 v17 h-9z"/></g>
<g fill="none" stroke="#2b1b2e" stroke-width="3" stroke-linecap="round"><path d="M500 300 q10 -8 20 0 q10 -8 20 0"/><path d="M560 270 q8 -6 16 0 q8 -6 16 0"/><path d="M1100 330 q9 -7 18 0 q9 -7 18 0"/></g>
</svg>